<?xml version="1.0" encoding="UTF-8"?>
<svg xmlns="http://www.w3.org/2000/svg" xmlns:xlink="http://www.w3.org/1999/xlink" width="70" height="58" viewBox="0 0 70 58" version="1.1">
<g id="surface1">
<path style=" stroke:none;fill-rule:nonzero;fill:rgb(0%,0%,0%);fill-opacity:1;" d="M 29.492188 7.816406 C 29.25 7.839844 29.042969 7.867188 29.023438 7.890625 C 28.996094 7.914062 28.769531 8.242188 28.507812 8.621094 C 27.589844 9.96875 26.847656 11.464844 26.269531 13.128906 C 26.085938 13.660156 25.914062 14.03125 25.625 14.472656 C 24.921875 15.554688 24.53125 16.464844 23.972656 18.324219 L 23.699219 19.230469 L 23.203125 19.699219 C 21.558594 21.25 20.636719 22.546875 19.261719 25.222656 L 18.886719 25.945312 L 18.886719 26.535156 C 18.886719 27.296875 18.765625 28.089844 18.382812 29.890625 C 17.953125 31.882812 17.824219 32.753906 17.679688 34.597656 L 17.613281 35.410156 L 18.035156 36.296875 C 20.144531 40.71875 22.3125 42.859375 29.882812 47.996094 C 30.871094 48.671875 31.707031 49.210938 31.726562 49.1875 C 31.746094 49.167969 31.777344 48.773438 31.796875 48.304688 L 31.828125 47.453125 L 32.417969 47.855469 C 32.742188 48.078125 33.042969 48.257812 33.078125 48.257812 C 33.164062 48.257812 36.378906 47.296875 38.21875 46.722656 C 39.0625 46.457031 39.402344 46.320312 39.617188 46.164062 C 40.800781 45.300781 41.828125 44.605469 42.617188 44.132812 C 43.101562 43.84375 43.101562 43.839844 43.496094 43.15625 C 43.84375 42.546875 44.164062 41.851562 44.84375 40.242188 C 45.3125 39.109375 45.570312 37.800781 45.46875 36.984375 C 45.417969 36.59375 45.429688 36.542969 45.582031 36.277344 C 45.707031 36.058594 45.746094 35.910156 45.746094 35.597656 C 45.753906 35.378906 45.734375 35.140625 45.707031 35.0625 C 45.671875 34.929688 45.707031 34.894531 46.171875 34.648438 C 46.808594 34.300781 47.78125 33.648438 48.347656 33.191406 L 48.773438 32.839844 L 49.074219 32.929688 C 49.238281 32.980469 49.402344 33.023438 49.441406 33.023438 C 49.625 33.023438 51.210938 30.910156 51.667969 30.042969 C 51.890625 29.628906 52.082031 28.886719 52.082031 28.449219 C 52.082031 28.261719 52.132812 28.132812 52.277344 27.945312 C 52.558594 27.578125 53.007812 26.710938 53.125 26.304688 C 53.1875 26.09375 53.226562 25.714844 53.226562 25.375 L 53.226562 24.804688 L 52.894531 24.492188 C 52.214844 23.851562 51.375 23.464844 49.917969 23.132812 C 49.449219 23.019531 48.773438 22.824219 48.425781 22.691406 L 47.789062 22.453125 L 47.820312 22.257812 C 47.839844 22.152344 47.851562 21.890625 47.851562 21.683594 C 47.851562 21.320312 47.824219 21.257812 47.363281 20.4375 C 46.898438 19.613281 46.785156 19.335938 46.613281 18.566406 C 46.523438 18.175781 46.210938 17.800781 45.601562 17.359375 L 45.179688 17.054688 L 45.175781 15.875 C 45.167969 14.941406 45.136719 14.550781 45.027344 13.988281 C 44.90625 13.367188 44.5625 12.09375 44.308594 11.328125 L 44.21875 11.074219 L 43.78125 11 C 43.234375 10.910156 42.425781 10.941406 42 11.074219 C 41.207031 11.316406 40.246094 12.054688 39.433594 13.03125 C 39.171875 13.355469 38.898438 13.605469 38.65625 13.757812 L 38.28125 13.996094 L 37.828125 13.875 C 37.214844 13.710938 36.488281 13.59375 36.09375 13.59375 L 35.761719 13.59375 L 35.519531 13.039062 C 34.777344 11.367188 33.742188 9.828125 32.78125 8.976562 C 31.71875 8.042969 30.769531 7.707031 29.492188 7.816406 Z M 30.847656 10.25 C 31.707031 10.644531 32.832031 12.1875 33.417969 13.785156 C 33.671875 14.472656 33.949219 15.632812 34 16.222656 L 34.039062 16.605469 L 33.675781 16.589844 L 33.320312 16.566406 L 33.21875 16.832031 C 33.023438 17.367188 32.398438 18.109375 31.71875 18.613281 L 31.324219 18.90625 L 31.128906 18.714844 C 30.988281 18.582031 30.847656 18.515625 30.664062 18.488281 C 30.515625 18.464844 30.394531 18.425781 30.394531 18.398438 C 30.394531 18.289062 30.890625 17.898438 31.027344 17.898438 C 31.152344 17.898438 31.152344 17.886719 30.96875 17.59375 C 30.859375 17.429688 30.769531 17.214844 30.765625 17.128906 C 30.757812 17.039062 30.867188 16.648438 31 16.253906 C 31.230469 15.59375 31.25 15.503906 31.25 14.792969 C 31.253906 14.144531 31.265625 14.042969 31.363281 14.011719 C 31.503906 13.980469 31.960938 14.085938 32.164062 14.207031 L 32.316406 14.296875 L 32.273438 13.984375 C 32.246094 13.816406 32.171875 13.535156 32.09375 13.367188 C 31.921875 12.960938 31.316406 12.402344 30.878906 12.257812 L 30.566406 12.15625 L 30.445312 12.296875 C 30.140625 12.625 29.742188 13.480469 29.472656 14.359375 C 28.953125 16.070312 28.894531 17.820312 29.320312 19.308594 C 29.421875 19.671875 29.503906 19.988281 29.503906 20.011719 C 29.503906 20.074219 28.996094 20.277344 28.832031 20.277344 C 28.71875 20.277344 28.691406 20.324219 28.652344 20.566406 C 28.628906 20.71875 28.566406 20.933594 28.507812 21.042969 C 28.417969 21.210938 28.347656 21.25 27.953125 21.351562 C 27.375 21.511719 26.332031 21.992188 25.671875 22.414062 C 25.390625 22.59375 24.863281 22.996094 24.5 23.3125 C 24.132812 23.628906 23.859375 23.828125 23.882812 23.765625 C 23.96875 23.503906 24.550781 22.492188 24.851562 22.089844 C 25.449219 21.292969 25.984375 20.792969 27.019531 20.0625 C 27.164062 19.960938 27.171875 19.9375 27.160156 19.246094 C 27.152344 18.859375 27.121094 18.378906 27.089844 18.179688 C 27.058594 17.984375 27.042969 17.808594 27.0625 17.789062 C 27.078125 17.773438 27.199219 17.851562 27.332031 17.960938 C 27.566406 18.160156 28.074219 18.519531 28.113281 18.519531 C 28.125 18.519531 28.136719 17.902344 28.136719 17.144531 C 28.144531 15.972656 28.164062 15.667969 28.292969 15.050781 C 28.640625 13.289062 29.296875 11.71875 30.191406 10.46875 C 30.320312 10.285156 30.464844 10.136719 30.511719 10.136719 C 30.554688 10.136719 30.707031 10.191406 30.847656 10.25 Z M 42.859375 13.351562 C 43.121094 14.113281 43.195312 14.691406 43.152344 15.574219 C 43.132812 16.027344 43.09375 16.488281 43.0625 16.59375 C 43.011719 16.78125 43.007812 16.765625 42.929688 16.339844 C 42.886719 16.089844 42.757812 15.632812 42.648438 15.320312 C 42.542969 15.007812 42.441406 14.589844 42.421875 14.390625 L 42.382812 14.03125 L 42.101562 14.222656 C 41.632812 14.546875 41.570312 14.660156 41.535156 15.21875 L 41.511719 15.71875 L 41.65625 15.597656 C 41.742188 15.53125 41.875 15.445312 41.957031 15.410156 L 42.097656 15.34375 L 42.097656 15.84375 C 42.097656 16.113281 42.140625 16.480469 42.191406 16.652344 C 42.242188 16.820312 42.273438 16.96875 42.261719 16.980469 C 42.25 16.988281 42.039062 16.882812 41.804688 16.75 C 41.5625 16.605469 41.15625 16.402344 40.90625 16.289062 C 40.570312 16.140625 40.441406 16.050781 40.441406 15.972656 C 40.441406 15.769531 40.9375 14.609375 41.21875 14.175781 C 41.65625 13.480469 42.25 12.976562 42.617188 12.96875 C 42.695312 12.96875 42.765625 13.074219 42.859375 13.351562 Z M 39.777344 17.574219 C 40.308594 17.898438 41.042969 18.539062 41.371094 18.980469 C 41.523438 19.191406 41.792969 19.621094 41.96875 19.941406 C 42.320312 20.59375 42.34375 20.558594 42.160156 19.695312 C 42 18.972656 41.84375 18.527344 41.523438 17.910156 C 41.390625 17.65625 41.296875 17.445312 41.320312 17.445312 C 41.347656 17.445312 41.554688 17.597656 41.792969 17.785156 C 42.496094 18.355469 42.867188 18.957031 43.203125 20.113281 C 43.285156 20.40625 43.367188 20.605469 43.386719 20.558594 C 43.40625 20.515625 43.449219 20.253906 43.488281 19.984375 C 43.566406 19.457031 43.777344 18.777344 43.878906 18.71875 C 44.023438 18.640625 44.679688 19.105469 44.734375 19.335938 C 44.753906 19.398438 44.804688 19.707031 44.855469 20.003906 C 44.933594 20.453125 44.988281 20.621094 45.167969 20.882812 C 45.582031 21.496094 45.671875 21.699219 45.636719 21.910156 C 45.570312 22.289062 45.296875 22.378906 45.089844 22.085938 L 44.976562 21.914062 L 44.804688 22.167969 C 44.601562 22.476562 44.457031 22.503906 44.105469 22.289062 L 43.871094 22.144531 L 43.910156 22.269531 C 44.023438 22.597656 44.296875 22.949219 44.558594 23.109375 C 44.945312 23.335938 46.988281 24.246094 47.535156 24.441406 C 47.78125 24.523438 47.984375 24.605469 47.996094 24.609375 C 48.011719 24.621094 47.894531 24.679688 47.738281 24.742188 C 47.585938 24.804688 47.4375 24.875 47.417969 24.898438 C 47.398438 24.925781 47.355469 25.199219 47.3125 25.503906 C 47.226562 26.144531 47.210938 26.101562 47.789062 26.683594 C 47.996094 26.898438 48.265625 27.261719 48.429688 27.566406 C 48.703125 28.058594 49.054688 28.433594 49.238281 28.433594 C 49.28125 28.433594 49.410156 28.382812 49.523438 28.320312 C 49.636719 28.257812 49.746094 28.207031 49.773438 28.207031 C 49.792969 28.207031 49.792969 28.375 49.765625 28.585938 C 49.714844 29.003906 49.53125 29.378906 49.167969 29.804688 C 48.914062 30.105469 48.773438 30.179688 48.699219 30.046875 C 48.664062 30.003906 48.578125 29.902344 48.5 29.820312 L 48.359375 29.679688 L 47.34375 29.992188 C 45.980469 30.40625 45.320312 30.527344 44.195312 30.570312 C 43.039062 30.609375 42.476562 30.511719 40.820312 29.996094 C 39.34375 29.542969 38.789062 29.429688 38.191406 29.464844 C 37.765625 29.492188 37.390625 29.59375 37.390625 29.679688 C 37.390625 29.703125 37.523438 29.734375 37.683594 29.757812 C 38.167969 29.816406 39.070312 30.109375 40.304688 30.621094 C 41.683594 31.1875 42.027344 31.292969 42.6875 31.375 C 43.457031 31.46875 44.09375 31.445312 45.089844 31.292969 C 46.101562 31.140625 46.433594 31.125 46.726562 31.214844 C 47.050781 31.3125 47.03125 31.425781 46.65625 31.742188 C 46.046875 32.25 44.765625 32.816406 43.800781 33.003906 C 43.546875 33.050781 43.058594 33.089844 42.714844 33.089844 L 42.089844 33.089844 L 41.726562 32.863281 C 40.902344 32.351562 39.832031 32.007812 38.59375 31.847656 C 37.867188 31.757812 37.785156 31.757812 37.316406 31.84375 C 37.007812 31.898438 36.5625 32.046875 36.195312 32.207031 L 35.578125 32.476562 L 35.898438 32.523438 C 37.21875 32.726562 37.855469 33.027344 38.757812 33.875 L 39.140625 34.238281 L 38.765625 34.277344 C 38.5625 34.300781 38.238281 34.386719 38.039062 34.464844 L 37.683594 34.613281 L 38.027344 34.878906 C 38.6875 35.394531 39.050781 36.070312 39.171875 37.039062 C 39.273438 37.839844 39.09375 39.117188 38.71875 40.226562 C 38.648438 40.441406 38.605469 40.632812 38.617188 40.652344 C 38.675781 40.695312 39.691406 40.214844 40.253906 39.871094 C 40.550781 39.6875 40.996094 39.375 41.246094 39.171875 L 41.703125 38.796875 L 41.746094 39.230469 C 41.796875 39.726562 41.796875 39.726562 42.304688 39.117188 C 42.757812 38.582031 43.09375 38.078125 43.34375 37.5625 C 43.449219 37.335938 43.558594 37.171875 43.585938 37.203125 C 43.671875 37.328125 43.691406 38.015625 43.621094 38.429688 C 43.425781 39.574219 42.628906 40.929688 41.460938 42.105469 L 41.078125 42.484375 L 41.078125 42.152344 C 41.078125 41.964844 41.058594 41.699219 41.042969 41.550781 L 40.996094 41.285156 L 40.417969 41.789062 C 39.464844 42.617188 38.253906 43.410156 36.914062 44.082031 C 36.335938 44.371094 35.464844 44.734375 35.132812 44.824219 C 35.039062 44.847656 34.71875 44.699219 33.957031 44.277344 C 31.679688 43.007812 30.535156 42.253906 29.066406 41.042969 C 28.804688 40.828125 28.71875 40.78125 28.679688 40.84375 C 28.632812 40.910156 28.519531 41.640625 28.46875 42.167969 C 28.457031 42.328125 28.375 42.265625 26.929688 40.980469 C 24.667969 38.964844 23.769531 37.964844 23.058594 36.675781 C 22.683594 36.007812 22.027344 34.453125 22.089844 34.398438 C 22.105469 34.386719 22.226562 34.511719 22.359375 34.675781 C 23.566406 36.148438 25.136719 37.496094 26.804688 38.488281 L 27.4375 38.867188 L 27.488281 38.519531 C 27.554688 38.0625 27.644531 37.863281 27.746094 37.9375 C 28.496094 38.480469 29.824219 39.195312 31.300781 39.851562 C 32.398438 40.339844 32.683594 40.457031 32.683594 40.414062 C 32.683594 40.402344 32.445312 40.148438 32.144531 39.847656 C 31.019531 38.71875 29.722656 37.292969 28.222656 35.53125 L 27.292969 34.441406 L 27.230469 34.679688 C 27.191406 34.8125 27.140625 35.0625 27.113281 35.226562 L 27.070312 35.535156 L 26.746094 35.226562 C 26.359375 34.855469 26.007812 34.390625 25.683594 33.832031 C 25.417969 33.378906 25.429688 33.371094 25.066406 33.886719 L 24.875 34.160156 L 24.738281 33.886719 C 24.195312 32.828125 24.042969 32.058594 24.253906 31.425781 C 24.367188 31.074219 24.691406 30.5 25.023438 30.058594 L 25.238281 29.777344 L 25.308594 30.023438 C 25.449219 30.539062 25.703125 31.078125 25.933594 31.375 C 26.066406 31.542969 26.207031 31.691406 26.238281 31.703125 C 26.277344 31.714844 26.351562 31.617188 26.414062 31.488281 L 26.535156 31.25 L 26.855469 31.582031 C 27.648438 32.414062 28.945312 33.417969 29.609375 33.707031 C 30.136719 33.9375 31.777344 33.929688 32.429688 33.691406 L 32.640625 33.609375 L 31.820312 33.179688 C 29.96875 32.199219 29.179688 31.382812 28.023438 29.265625 C 27.433594 28.183594 27.433594 28.242188 28 28.4375 C 28.527344 28.621094 29.53125 28.886719 29.691406 28.886719 C 29.746094 28.886719 29.5 28.625 29.09375 28.253906 C 28.496094 27.707031 27.6875 26.773438 27.558594 26.492188 C 27.535156 26.429688 27.609375 26.390625 27.863281 26.335938 C 28.921875 26.128906 29.957031 25.753906 30.039062 25.5625 C 30.058594 25.515625 30.019531 25.386719 29.949219 25.265625 L 29.832031 25.046875 L 30.859375 24.59375 C 31.425781 24.339844 32.050781 24.027344 32.234375 23.898438 C 32.679688 23.597656 32.890625 23.515625 33.402344 23.472656 L 33.816406 23.433594 L 34.078125 23.652344 C 34.222656 23.777344 34.535156 24.101562 34.769531 24.382812 C 35.332031 25.058594 35.558594 25.171875 36.277344 25.132812 C 36.863281 25.097656 37.359375 24.957031 37.957031 24.65625 L 38.375 24.441406 L 37.949219 24.40625 C 36.996094 24.316406 36.496094 24.066406 35.515625 23.195312 C 35.089844 22.820312 34.65625 22.445312 34.542969 22.363281 C 34.308594 22.1875 34.320312 22.101562 34.632812 21.890625 C 34.753906 21.8125 34.847656 21.726562 34.847656 21.703125 C 34.847656 21.683594 34.726562 21.621094 34.574219 21.5625 C 34.425781 21.507812 34.238281 21.410156 34.148438 21.347656 L 33.988281 21.230469 L 34.179688 21.109375 C 34.546875 20.871094 34.917969 20.539062 35.265625 20.125 C 35.71875 19.59375 35.910156 19.484375 36.398438 19.484375 L 36.769531 19.484375 L 36.722656 19.324219 C 36.703125 19.242188 36.648438 19.105469 36.601562 19.027344 C 36.527344 18.890625 36.539062 18.832031 36.722656 18.476562 C 37.207031 17.554688 37.511719 17.320312 38.238281 17.328125 C 38.496094 17.328125 38.765625 17.296875 38.855469 17.253906 C 39.039062 17.167969 39.164062 17.214844 39.777344 17.574219 Z M 50.902344 25.089844 C 51.140625 25.222656 51.140625 25.226562 51.105469 25.5 C 51.070312 25.765625 50.871094 26.15625 50.625 26.445312 C 50.507812 26.582031 50.503906 26.582031 50.535156 26.191406 C 50.566406 25.804688 50.566406 25.792969 50.402344 25.726562 C 50.304688 25.6875 49.980469 25.65625 49.671875 25.65625 C 49.347656 25.65625 48.972656 25.617188 48.773438 25.566406 C 48.441406 25.484375 48.4375 25.472656 48.550781 25.390625 C 48.722656 25.273438 49.308594 25.039062 49.59375 24.976562 C 49.988281 24.886719 50.636719 24.945312 50.902344 25.089844 Z M 50.902344 25.089844 "/>
<path style=" stroke:none;fill-rule:nonzero;fill:rgb(0%,0%,0%);fill-opacity:1;" d="M 38.179688 20.417969 C 38.3125 20.898438 38.332031 20.871094 37.886719 20.941406 C 37.382812 21.011719 36.769531 21.234375 36.367188 21.476562 C 36.195312 21.578125 36.054688 21.675781 36.0625 21.691406 C 36.0625 21.710938 36.226562 21.816406 36.425781 21.929688 C 36.621094 22.050781 37.085938 22.371094 37.453125 22.65625 C 38.402344 23.382812 38.515625 23.402344 40.105469 23.070312 C 40.207031 23.046875 40.355469 23.136719 40.75 23.472656 C 41.027344 23.714844 41.367188 24.050781 41.5 24.21875 C 41.691406 24.464844 41.753906 24.515625 41.816406 24.457031 C 41.976562 24.304688 42.171875 23.691406 42.203125 23.25 C 42.230469 22.945312 42.289062 22.707031 42.390625 22.515625 C 42.472656 22.355469 42.554688 22.15625 42.578125 22.066406 C 42.617188 21.914062 42.613281 21.902344 42.472656 21.941406 C 42.160156 22.027344 41.167969 22.050781 40.925781 21.976562 C 40.773438 21.9375 40.425781 21.6875 39.964844 21.308594 C 39.214844 20.671875 38.714844 20.363281 38.351562 20.300781 C 38.140625 20.261719 38.136719 20.265625 38.179688 20.417969 Z M 39.375 22.074219 C 39.519531 22.203125 39.628906 22.320312 39.609375 22.339844 C 39.597656 22.351562 39.324219 22.378906 39.007812 22.394531 L 38.425781 22.433594 L 38.199219 22.207031 C 38.070312 22.078125 37.964844 21.953125 37.964844 21.917969 C 37.964844 21.839844 38.21875 21.734375 38.503906 21.691406 C 38.808594 21.648438 39 21.734375 39.375 22.074219 Z M 39.375 22.074219 "/>
</g>
</svg>
